<?xml version="1.0" standalone="no"?>
<!DOCTYPE svg PUBLIC "-//W3C//DTD SVG 20010904//EN"
 "http://www.w3.org/TR/2001/REC-SVG-20010904/DTD/svg10.dtd">
<svg version="1.0" xmlns="http://www.w3.org/2000/svg"
 width="814.000000pt" height="366.000000pt" viewBox="0 0 814.000000 366.000000"
 preserveAspectRatio="xMidYMid meet">

<g transform="translate(0.000000,366.000000) scale(0.100000,-0.100000)"
fill="#000000" stroke="none">
<path d="M1713 3336 c-22 -11 -21 -14 62 -168 l85 -157 0 -748 0 -748 -100
-185 c-97 -181 -98 -185 -77 -196 20 -11 26 -4 112 157 l90 169 670 0 670 0
90 -169 c86 -161 92 -168 112 -157 22 11 20 15 -72 186 l-95 175 0 767 0 768
80 147 c78 145 79 148 57 159 -20 11 -25 5 -97 -130 l-76 -141 -669 0 -669 0
-76 141 c-72 135 -77 141 -97 130z m1092 -591 c77 -39 115 -105 115 -196 0
-104 -43 -170 -143 -219 -40 -19 -54 -30 -40 -30 49 0 139 -43 184 -89 39 -38
49 -56 59 -104 29 -144 -57 -274 -220 -329 -58 -19 -91 -22 -317 -26 l-253 -4
0 26 c0 22 5 26 29 26 15 0 42 5 59 11 50 17 53 44 50 484 -3 445 1 423 -82
432 -41 5 -46 8 -46 30 l0 24 273 -3 273 -3 59 -30z"/>
<path d="M2533 2723 c-55 -7 -58 -18 -58 -217 l0 -181 65 2 c93 3 145 20 180
59 82 94 57 265 -49 318 -31 16 -93 24 -138 19z"/>
<path d="M2471 2109 c0 -183 8 -253 32 -276 21 -21 110 -28 165 -13 100 26
162 130 148 247 -15 130 -91 188 -263 200 l-83 6 1 -164z"/>
<path d="M4704 3325 c-3 -8 36 -76 95 -162 l101 -148 0 -758 0 -758 -116 -170
c-110 -161 -127 -199 -90 -199 8 0 64 74 126 165 l113 165 666 0 666 0 108
-160 c60 -88 115 -160 123 -160 37 0 20 38 -85 192 l-111 163 0 774 0 775 91
133 c86 127 101 163 65 163 -8 0 -57 -63 -108 -140 l-93 -139 -665 0 -665 0
-93 139 c-88 133 -115 159 -128 125z m906 -570 c0 -20 -5 -25 -24 -25 -12 0
-37 -5 -54 -11 -50 -17 -53 -45 -50 -474 l3 -384 23 -23 c19 -20 35 -24 108
-27 46 -1 100 0 120 3 51 10 98 57 130 131 23 53 33 65 51 65 13 0 23 -6 23
-14 0 -15 -37 -201 -46 -228 -5 -17 -30 -18 -350 -18 l-344 0 0 24 c0 21 6 24
49 30 90 12 86 -8 89 440 4 434 1 457 -50 475 -17 6 -42 11 -54 11 -19 0 -24
5 -24 25 l0 25 200 0 200 0 0 -25z"/>
<path d="M3360 2260 l0 -800 700 0 700 0 0 800 0 800 -700 0 -700 0 0 -800z
m860 512 c111 -44 174 -143 174 -272 0 -90 -13 -141 -55 -203 -76 -115 -247
-174 -385 -132 -27 8 -50 15 -52 15 -2 0 -2 -81 0 -181 3 -176 4 -181 26 -200
13 -10 46 -21 73 -25 43 -6 49 -9 49 -30 l0 -24 -220 0 -220 0 0 24 c0 21 6
25 46 31 57 8 81 32 89 87 3 24 5 221 3 439 -3 450 0 432 -84 445 -38 5 -44 9
-44 31 l0 24 273 -3 c253 -3 276 -5 327 -26z"/>
<path d="M3923 2725 c-23 -16 -23 -19 -23 -250 0 -129 4 -236 9 -239 4 -3 33
-8 62 -12 72 -8 131 9 179 52 54 49 75 109 75 214 0 105 -27 168 -94 215 -36
25 -54 30 -114 33 -55 3 -77 -1 -94 -13z"/>
<path d="M1188 815 c-33 -18 -58 -63 -58 -102 0 -36 31 -87 67 -109 61 -38 83
-66 83 -106 0 -29 -6 -41 -26 -55 -23 -15 -29 -15 -53 -2 -14 8 -35 34 -47 58
-25 51 -37 42 -26 -20 6 -32 14 -47 32 -56 57 -29 138 -3 164 52 34 71 13 123
-73 181 -29 19 -57 46 -63 59 -26 58 27 114 76 81 14 -9 28 -27 32 -41 3 -14
10 -25 15 -25 11 0 11 61 0 79 -13 20 -91 24 -123 6z"/>
<path d="M1518 821 c-74 -24 -124 -91 -135 -179 -7 -64 12 -126 52 -171 43
-48 98 -65 176 -56 l59 7 14 46 c14 50 10 78 -8 47 -32 -54 -62 -77 -101 -77
-77 0 -133 98 -122 213 9 97 54 153 123 153 38 0 79 -32 88 -70 4 -13 11 -24
17 -24 11 0 2 89 -11 103 -11 13 -121 18 -152 8z"/>
<path d="M1845 816 c-17 -7 -45 -29 -62 -49 -86 -98 -61 -280 47 -335 55 -28
92 -28 147 -1 66 32 98 93 98 189 0 61 -5 83 -25 120 -41 75 -132 108 -205 76z
m110 -39 c74 -74 75 -261 2 -323 -36 -31 -58 -30 -96 2 -75 63 -82 255 -11
326 37 37 65 35 105 -5z"/>
<path d="M3285 816 c-17 -7 -45 -29 -62 -49 -86 -98 -61 -280 47 -335 55 -28
92 -28 147 -1 66 32 98 93 98 189 0 61 -5 83 -25 120 -41 75 -132 108 -205 76z
m110 -39 c74 -74 75 -261 2 -323 -36 -31 -58 -30 -96 2 -75 63 -82 255 -11
326 37 37 65 35 105 -5z"/>
<path d="M4490 772 c0 -33 4 -51 10 -47 6 3 10 14 10 24 0 25 21 41 64 48 l36
6 -2 -174 c-3 -170 -4 -174 -25 -184 -41 -18 -24 -25 57 -25 81 0 98 7 58 25
-22 10 -23 14 -26 183 -2 165 -2 172 17 172 41 0 69 -18 76 -49 9 -41 25 -40
25 2 0 75 5 72 -156 72 l-144 0 0 -53z"/>
<path d="M5378 815 c-33 -18 -58 -63 -58 -102 0 -36 31 -87 67 -109 61 -38 83
-66 83 -106 0 -29 -6 -41 -26 -55 -23 -15 -29 -15 -53 -2 -14 8 -35 34 -47 58
-25 51 -37 42 -26 -20 6 -32 14 -47 32 -56 57 -29 138 -3 164 52 34 71 13 123
-73 181 -29 19 -57 46 -63 59 -26 58 27 114 76 81 14 -9 28 -27 32 -41 3 -14
10 -25 15 -25 11 0 11 61 0 79 -13 20 -91 24 -123 6z"/>
<path d="M6810 772 c0 -33 4 -51 10 -47 6 3 10 14 10 24 0 25 21 41 64 48 l36
6 -2 -174 c-3 -170 -4 -174 -25 -184 -41 -18 -24 -25 57 -25 81 0 98 7 58 25
-22 10 -23 14 -26 183 -2 165 -2 172 17 172 41 0 69 -18 76 -49 9 -41 25 -40
25 2 0 75 5 72 -156 72 l-144 0 0 -53z"/>
<path d="M270 812 c0 -6 9 -14 20 -17 19 -6 20 -15 20 -177 0 -161 -1 -170
-20 -175 -44 -12 -16 -23 58 -23 99 0 145 13 176 51 45 53 32 115 -31 148 -34
17 -35 19 -15 25 26 9 52 54 52 90 0 14 -11 38 -24 53 -23 27 -28 28 -130 31
-68 3 -106 0 -106 -6z m170 -30 c33 -27 33 -97 1 -123 -13 -10 -34 -19 -47
-19 -23 0 -24 3 -24 74 0 73 4 83 36 85 7 1 22 -7 34 -17z m23 -193 c26 -32
22 -94 -8 -124 -26 -27 -54 -32 -73 -13 -7 7 -12 43 -12 91 l0 80 38 -6 c20
-4 45 -16 55 -28z"/>
<path d="M590 813 c0 -4 9 -14 20 -21 19 -11 20 -23 20 -172 0 -149 -1 -161
-20 -172 -35 -22 -22 -28 55 -28 77 0 92 8 53 25 -20 9 -23 19 -26 78 -3 62
-1 67 17 67 15 0 29 -17 52 -62 38 -77 63 -105 100 -113 46 -10 53 3 19 41
-16 19 -43 61 -59 92 l-29 57 29 33 c38 43 41 107 5 149 -23 27 -28 28 -130
31 -58 2 -106 0 -106 -5z m177 -39 c22 -22 25 -32 20 -77 -5 -56 -31 -87 -73
-87 -23 0 -24 2 -24 88 0 49 3 92 7 95 14 14 45 6 70 -19z"/>
<path d="M930 811 c0 -5 9 -13 20 -16 19 -6 20 -15 20 -175 0 -160 -1 -169
-20 -175 -41 -13 -18 -25 50 -25 68 0 91 12 50 25 -19 6 -20 15 -20 175 0 160
1 169 20 175 41 13 18 25 -50 25 -38 0 -70 -4 -70 -9z"/>
<path d="M2120 811 c0 -5 9 -13 20 -16 20 -6 20 -13 18 -178 -3 -170 -3 -172
-25 -175 -13 -2 -23 -8 -23 -13 0 -5 58 -9 134 -9 l133 0 7 38 c8 51 8 62 -4
62 -5 0 -10 -7 -10 -15 0 -31 -47 -65 -88 -65 -54 0 -62 13 -62 97 l0 73 45 0
c39 0 45 -3 51 -25 11 -45 24 -26 24 35 0 58 -12 80 -23 40 -4 -16 -14 -20
-51 -20 l-47 0 3 78 3 77 32 3 c40 4 71 -12 83 -44 15 -38 25 -28 22 21 l-4
45 -119 0 c-67 0 -119 -4 -119 -9z"/>
<path d="M2540 811 c0 -5 9 -13 20 -16 19 -6 20 -15 20 -171 0 -153 -1 -165
-20 -176 -35 -22 -22 -28 55 -28 77 0 92 8 53 25 -20 9 -23 19 -26 77 l-3 67
34 -6 c39 -6 88 15 111 49 18 26 21 109 5 140 -17 32 -71 48 -164 48 -47 0
-85 -4 -85 -9z m175 -36 c52 -51 21 -165 -46 -165 l-29 0 0 88 c0 49 3 92 7
95 14 14 45 6 68 -18z"/>
<path d="M2840 813 c0 -4 9 -14 20 -21 19 -11 20 -23 20 -172 0 -149 -1 -161
-20 -172 -35 -22 -22 -28 55 -28 77 0 92 8 53 25 -20 9 -23 19 -26 78 -3 62
-1 67 17 67 15 0 29 -17 52 -62 38 -77 63 -105 100 -113 46 -10 53 3 19 41
-16 19 -43 61 -59 92 l-29 57 29 33 c38 43 41 107 5 149 -23 27 -28 28 -130
31 -58 2 -106 0 -106 -5z m177 -39 c22 -22 25 -32 20 -77 -5 -56 -31 -87 -73
-87 -23 0 -24 2 -24 88 0 49 3 92 7 95 14 14 45 6 70 -19z"/>
<path d="M3560 811 c0 -5 9 -13 20 -16 19 -6 20 -15 20 -171 0 -153 -1 -165
-20 -176 -35 -22 -22 -28 55 -28 77 0 92 8 53 25 -20 9 -23 19 -26 77 l-3 67
34 -6 c39 -6 88 15 111 49 18 26 21 109 5 140 -17 32 -71 48 -164 48 -47 0
-85 -4 -85 -9z m175 -36 c52 -51 21 -165 -46 -165 l-29 0 0 88 c0 49 3 92 7
95 14 14 45 6 68 -18z"/>
<path d="M3870 811 c0 -5 9 -13 20 -16 20 -6 20 -13 18 -178 -3 -170 -3 -172
-25 -175 -13 -2 -23 -8 -23 -13 0 -5 58 -9 134 -9 l133 0 7 38 c8 51 8 62 -4
62 -5 0 -10 -7 -10 -15 0 -31 -47 -65 -88 -65 -54 0 -62 13 -62 97 l0 73 45 0
c39 0 45 -3 51 -25 11 -45 24 -26 24 35 0 58 -12 80 -23 40 -4 -16 -14 -20
-51 -20 l-47 0 3 78 3 77 32 3 c40 4 71 -12 83 -44 15 -38 25 -28 22 21 l-4
45 -119 0 c-67 0 -119 -4 -119 -9z"/>
<path d="M4170 813 c0 -4 9 -14 20 -21 19 -11 20 -23 20 -172 0 -149 -1 -161
-20 -172 -35 -22 -22 -28 55 -28 77 0 92 8 53 25 -20 9 -23 19 -26 78 -3 62
-1 67 17 67 15 0 29 -17 52 -62 38 -77 63 -105 100 -113 46 -10 53 3 19 41
-16 19 -43 61 -59 92 l-29 57 29 33 c38 43 41 107 5 149 -23 27 -28 28 -130
31 -58 2 -106 0 -106 -5z m177 -39 c22 -22 25 -32 20 -77 -5 -56 -31 -87 -73
-87 -23 0 -24 2 -24 88 0 49 3 92 7 95 14 14 45 6 70 -19z"/>
<path d="M4820 811 c0 -5 9 -13 20 -16 19 -6 20 -15 20 -175 0 -160 -1 -169
-20 -175 -41 -13 -18 -25 50 -25 68 0 91 12 50 25 -19 6 -20 15 -20 175 0 160
1 169 20 175 41 13 18 25 -50 25 -38 0 -70 -4 -70 -9z"/>
<path d="M5010 811 c0 -5 9 -13 20 -16 20 -6 20 -13 18 -178 -3 -170 -3 -172
-25 -175 -13 -2 -23 -8 -23 -13 0 -5 58 -9 134 -9 l133 0 7 38 c8 51 8 62 -4
62 -5 0 -10 -7 -10 -15 0 -31 -47 -65 -88 -65 -54 0 -62 13 -62 97 l0 73 45 0
c39 0 45 -3 51 -25 11 -45 24 -26 24 35 0 58 -12 80 -23 40 -4 -16 -14 -20
-51 -20 l-47 0 3 78 3 77 32 3 c40 4 71 -12 83 -44 15 -38 25 -28 22 21 l-4
45 -119 0 c-67 0 -119 -4 -119 -9z"/>
<path d="M5680 811 c0 -5 9 -13 20 -16 20 -6 20 -13 18 -178 -3 -170 -3 -172
-25 -175 -13 -2 -23 -8 -23 -13 0 -5 54 -9 124 -9 l125 0 7 45 c8 57 0 66 -20
26 -18 -34 -44 -51 -78 -51 -44 0 -48 14 -48 186 0 154 1 163 20 169 41 13 18
25 -50 25 -38 0 -70 -4 -70 -9z"/>
<path d="M5960 811 c0 -5 9 -13 20 -16 19 -6 20 -15 20 -175 0 -160 -1 -169
-20 -175 -41 -13 -18 -25 50 -25 68 0 91 12 50 25 -19 6 -20 15 -20 175 0 160
1 169 20 175 41 13 18 25 -50 25 -38 0 -70 -4 -70 -9z"/>
<path d="M6160 810 c0 -5 7 -10 15 -10 29 0 34 -33 24 -180 -11 -147 -19 -180
-44 -180 -8 0 -15 -4 -15 -10 0 -6 27 -10 60 -10 59 0 79 13 40 25 -19 6 -20
15 -20 151 0 79 2 144 4 144 2 0 28 -70 57 -155 30 -85 58 -153 63 -152 6 2
34 68 63 148 29 79 55 149 57 154 2 6 5 -57 5 -138 1 -141 0 -149 -19 -154
-44 -12 -16 -23 55 -23 77 0 92 8 53 25 -22 10 -23 15 -26 178 -2 162 -2 169
18 174 37 10 21 23 -29 23 l-48 0 -53 -140 c-30 -77 -55 -139 -56 -137 -1 1
-23 56 -47 122 -25 66 -48 128 -52 138 -5 13 -19 17 -56 17 -27 0 -49 -4 -49
-10z"/>
<path d="M6620 811 c0 -5 9 -13 20 -16 19 -6 20 -15 20 -175 0 -160 -1 -169
-20 -175 -41 -13 -18 -25 50 -25 68 0 91 12 50 25 -19 6 -20 15 -20 175 0 160
1 169 20 175 41 13 18 25 -50 25 -38 0 -70 -4 -70 -9z"/>
<path d="M7140 811 c0 -5 9 -13 20 -16 20 -6 20 -13 18 -178 -3 -170 -3 -172
-25 -175 -13 -2 -23 -8 -23 -13 0 -5 58 -9 134 -9 l133 0 7 38 c8 51 8 62 -4
62 -5 0 -10 -7 -10 -15 0 -31 -47 -65 -88 -65 -54 0 -62 13 -62 97 l0 73 45 0
c39 0 45 -3 51 -25 11 -45 24 -26 24 35 0 58 -12 80 -23 40 -4 -16 -14 -20
-51 -20 l-47 0 3 78 3 77 32 3 c40 4 71 -12 83 -44 15 -38 25 -28 22 21 l-4
45 -119 0 c-67 0 -119 -4 -119 -9z"/>
<path d="M7440 812 c0 -6 9 -14 20 -17 20 -6 20 -13 18 -173 -3 -162 -4 -167
-25 -177 -46 -20 -20 -27 85 -23 131 4 182 27 221 97 34 61 35 159 2 217 -36
65 -67 77 -203 82 -79 3 -118 1 -118 -6z m217 -37 c14 -9 34 -37 45 -63 36
-81 12 -209 -47 -248 -31 -21 -93 -23 -106 -4 -14 24 -12 327 4 334 20 9 77
-2 104 -19z"/>
</g>
</svg>
