<?xml version="1.0" standalone="no"?>
<!DOCTYPE svg PUBLIC "-//W3C//DTD SVG 20010904//EN"
 "http://www.w3.org/TR/2001/REC-SVG-20010904/DTD/svg10.dtd">
<svg version="1.0" xmlns="http://www.w3.org/2000/svg"
 width="588.000000pt" height="331.000000pt" viewBox="0 0 588.000000 331.000000"
 preserveAspectRatio="xMidYMid meet">

<g transform="translate(0.000000,331.000000) scale(0.100000,-0.100000)"
fill="#000000" stroke="none">
<path d="M2512 3262 c-34 -20 -62 -39 -62 -42 0 -3 12 -12 28 -21 15 -9 118
-69 230 -134 l203 -117 137 78 c218 123 322 186 322 195 0 4 -27 24 -61 44
l-61 35 -161 -95 c-89 -52 -167 -95 -175 -95 -7 0 -77 38 -155 84 -78 46 -151
88 -163 94 -17 9 -31 4 -82 -26z"/>
<path d="M3444 3067 c-314 -175 -373 -212 -361 -223 7 -6 107 -64 222 -129
116 -65 395 -223 620 -350 226 -128 551 -312 724 -409 176 -100 319 -175 328
-172 8 3 94 52 191 108 97 56 196 112 219 126 24 13 45 27 48 31 5 9 -123 93
-133 88 -4 -2 -82 -50 -174 -106 l-167 -102 -518 297 c-285 164 -642 368 -793
455 -151 87 -275 163 -275 170 0 6 65 50 145 96 80 47 149 88 153 92 7 7 -8
19 -93 74 -24 15 -28 14 -136 -46z"/>
<path d="M2192 3074 c-29 -25 -50 -49 -48 -53 3 -4 66 -44 140 -90 75 -46 136
-87 136 -90 0 -4 -345 -202 -767 -441 -423 -239 -782 -442 -799 -452 l-30 -18
-144 84 -144 85 -37 -22 c-19 -12 -47 -30 -60 -39 -24 -17 -24 -18 -4 -33 30
-24 397 -228 409 -228 6 0 121 63 256 140 337 192 912 520 1225 698 143 81
291 165 328 187 l69 40 -149 89 c-157 96 -318 189 -324 189 -3 0 -28 -21 -57
-46z"/>
<path d="M2665 2618 c-403 -227 -1324 -747 -1492 -842 -144 -80 -161 -93 -145
-104 35 -26 1857 -1065 1868 -1065 13 0 1883 1066 1883 1074 1 3 -32 23 -71
46 -40 22 -318 179 -618 348 -300 169 -689 388 -865 487 -176 99 -322 182
-325 183 -3 2 -109 -55 -235 -127z m261 -57 c8 -7 926 -535 1407 -809 82 -46
145 -87 140 -92 -4 -4 -109 -65 -233 -135 -124 -71 -468 -268 -765 -438 -297
-170 -550 -314 -562 -320 -18 -8 -80 24 -420 219 -219 126 -571 328 -782 449
-211 121 -384 224 -384 230 0 12 -49 -17 838 492 396 227 727 413 736 413 8 0
19 -4 25 -9z"/>
<path d="M2768 2320 c-249 -42 -468 -258 -523 -515 -57 -272 34 -541 240 -708
228 -184 584 -182 799 5 53 45 136 152 136 173 0 9 -28 20 -74 30 l-75 17 -63
-65 c-42 -43 -86 -75 -133 -98 -69 -33 -72 -34 -200 -34 -119 0 -135 2 -185
26 -128 60 -228 178 -271 319 -30 96 -32 245 -5 335 76 254 293 405 528 366
133 -22 235 -84 306 -186 l37 -54 88 -1 c61 0 87 4 87 12 0 18 -74 138 -115
186 -132 153 -360 228 -577 192z"/>
<path d="M2794 2021 c-108 -28 -206 -111 -257 -219 -29 -61 -32 -76 -32 -162
0 -145 47 -248 149 -329 90 -71 246 -93 361 -50 114 43 220 179 239 307 l6 42
-230 0 -230 0 0 -30 0 -30 189 0 190 0 -8 -28 c-23 -79 -89 -154 -169 -194
-37 -18 -63 -22 -122 -22 -92 1 -155 29 -219 99 -64 70 -85 123 -85 225 -1 77
2 92 32 152 34 70 85 122 151 155 27 13 59 18 126 18 80 0 95 -3 135 -27 25
-14 61 -42 79 -62 28 -29 42 -36 73 -36 21 0 38 3 38 7 0 9 -48 70 -78 99 -15
14 -54 39 -87 56 -49 25 -74 31 -140 34 -44 2 -94 0 -111 -5z"/>
<path d="M5318 1832 c-136 -81 -250 -151 -253 -154 -3 -3 112 -78 256 -167
l261 -162 70 38 c39 21 71 42 71 48 -1 5 -82 57 -182 115 -100 59 -186 111
-191 116 -7 7 53 46 175 115 102 57 185 107 185 110 0 7 -132 89 -141 89 -2 0
-115 -67 -251 -148z"/>
<path d="M181 1884 c-29 -20 -49 -40 -45 -44 5 -5 73 -43 152 -86 91 -49 139
-81 133 -87 -5 -5 -94 -62 -197 -126 -103 -64 -189 -121 -191 -127 -2 -6 23
-23 55 -38 l58 -28 199 115 c320 183 345 198 345 205 -1 10 -430 252 -447 252
-5 0 -32 -16 -62 -36z"/>
<path d="M4300 1239 c-355 -203 -777 -445 -937 -537 -161 -92 -293 -169 -293
-172 0 -4 343 -202 488 -281 l44 -24 56 32 c31 17 58 35 59 40 2 4 -76 56
-174 114 -97 58 -178 110 -180 116 -2 6 70 53 159 106 464 269 1383 800 1395
804 7 3 103 -47 213 -111 l200 -117 70 41 c39 23 70 44 70 48 0 8 -504 312
-517 312 -4 0 -298 -167 -653 -371z"/>
<path d="M645 1444 c-292 -168 -325 -188 -325 -194 0 -3 25 -22 56 -44 66 -46
39 -54 278 84 97 55 182 100 190 100 8 0 155 -84 328 -186 172 -103 520 -303
773 -446 253 -142 466 -265 472 -271 10 -10 -7 -24 -80 -66 -50 -30 -134 -78
-185 -109 l-94 -54 59 -39 c32 -21 62 -39 67 -39 9 0 108 56 331 185 50 29
112 65 138 80 27 15 45 31 40 35 -4 4 -116 71 -248 148 -340 198 -1512 880
-1560 908 l-40 23 -200 -115z"/>
<path d="M2815 386 c-38 -24 -155 -94 -260 -156 -104 -62 -198 -119 -208 -125
-16 -11 -10 -17 58 -54 l77 -41 188 115 c103 63 199 120 214 126 24 11 40 4
212 -99 102 -62 189 -112 194 -112 12 0 130 74 130 82 0 3 -93 59 -207 124
-115 64 -234 132 -266 151 -32 18 -59 33 -60 32 -1 0 -33 -20 -72 -43z"/>
</g>
</svg>
