<?xml version="1.0" standalone="no"?>
<!DOCTYPE svg PUBLIC "-//W3C//DTD SVG 20010904//EN"
 "http://www.w3.org/TR/2001/REC-SVG-20010904/DTD/svg10.dtd">
<svg version="1.0" xmlns="http://www.w3.org/2000/svg"
 width="1976.000000pt" height="1283.000000pt" viewBox="0 0 1976.000000 1283.000000"
 preserveAspectRatio="xMidYMid meet">

<g transform="translate(0.000000,1283.000000) scale(0.100000,-0.100000)"
fill="#000000" stroke="none">
<path d="M17070 7069 c-80 -10 -185 -22 -235 -26 l-90 -8 0 -327 c0 -179 -3
-329 -7 -334 -4 -4 -28 12 -54 35 -69 64 -140 93 -244 99 -184 10 -326 -41
-445 -162 -121 -123 -174 -254 -182 -452 -10 -232 47 -396 186 -535 123 -123
235 -164 425 -157 133 5 197 27 291 98 71 54 75 52 75 -31 0 -45 3 -51 28 -60
28 -12 389 -8 408 4 6 4 7 31 3 74 -31 281 -34 1007 -7 1473 15 252 16 323 3
325 -5 1 -75 -6 -155 -16z m-453 -978 c82 -41 137 -137 136 -236 -1 -73 -19
-119 -70 -175 -124 -138 -329 -93 -390 85 -34 102 6 254 80 307 73 52 166 59
244 19z"/>
<path d="M6535 7032 c-38 -4 -76 -11 -84 -16 -11 -7 -12 -61 -5 -335 10 -370
11 -683 4 -1146 l-5 -320 280 -9 c355 -11 674 3 785 34 160 45 284 125 390
251 293 350 305 864 29 1232 -121 161 -293 251 -559 293 -104 16 -710 28 -835
16z m780 -423 c127 -39 239 -152 287 -289 31 -88 33 -295 4 -380 -32 -94 -66
-152 -122 -206 -96 -94 -210 -130 -384 -122 -156 8 -146 -10 -155 273 -4 131
-4 345 0 476 7 229 8 240 29 251 59 32 234 30 341 -3z"/>
<path d="M8487 6984 c-72 -22 -142 -94 -156 -161 -32 -155 77 -273 253 -273
93 0 157 23 200 70 20 22 36 41 36 43 0 2 5 29 11 61 34 185 -146 321 -344
260z"/>
<path d="M13375 6494 c-209 -41 -378 -193 -450 -405 -23 -70 -29 -106 -33
-212 -7 -191 16 -283 105 -419 66 -101 170 -183 286 -227 92 -34 144 -42 262
-42 204 0 337 52 466 181 116 116 171 244 185 426 18 224 -73 451 -228 575
-150 119 -376 166 -593 123z m286 -419 c121 -86 145 -290 49 -407 -60 -73
-169 -98 -256 -59 -80 36 -144 144 -144 241 0 97 64 204 144 242 62 29 153 21
207 -17z"/>
<path d="M9475 6486 c-131 -28 -217 -77 -306 -173 -115 -124 -162 -261 -163
-473 0 -159 14 -223 77 -345 84 -161 236 -278 398 -305 143 -24 256 8 376 108
34 29 64 48 66 44 3 -4 8 -29 12 -57 14 -94 0 -89 222 -82 135 5 200 10 211
19 13 11 14 43 6 258 -13 343 -9 602 11 750 9 69 17 134 18 145 1 12 -8 24
-23 32 -32 15 -259 61 -325 65 -47 3 -50 2 -59 -27 -5 -16 -16 -45 -23 -64
l-13 -33 -55 50 c-76 69 -143 94 -270 98 -58 2 -125 -2 -160 -10z m293 -388
c33 -8 60 -26 98 -62 59 -57 74 -97 74 -192 0 -106 -67 -205 -159 -233 -197
-58 -376 106 -332 303 33 146 166 223 319 184z"/>
<path d="M11393 6485 c-70 -19 -112 -41 -212 -113 -47 -34 -89 -59 -93 -56 -4
3 -8 32 -8 64 0 75 -13 110 -40 110 -12 0 -65 -11 -118 -24 -53 -13 -128 -27
-167 -30 -38 -4 -87 -11 -109 -17 l-39 -11 7 -81 c4 -45 11 -131 16 -192 6
-60 10 -291 10 -512 l0 -403 28 -7 c15 -4 111 -7 213 -8 143 0 190 3 202 14
15 12 17 52 17 396 l0 383 25 30 c34 41 119 82 169 82 54 0 103 -31 124 -78
15 -32 17 -83 18 -413 1 -207 4 -384 7 -393 6 -14 33 -16 220 -16 177 0 217 3
227 15 9 11 10 83 5 307 -7 322 1 444 32 487 83 111 236 119 288 16 19 -38 20
-60 20 -417 0 -348 2 -379 18 -395 16 -16 40 -18 216 -18 141 0 202 3 213 12
12 11 14 85 14 525 l-1 513 -28 57 c-43 89 -116 142 -234 173 -169 44 -370
-14 -504 -145 l-57 -56 -16 37 c-61 138 -275 214 -463 164z"/>
<path d="M15170 6485 c-76 -19 -133 -44 -241 -109 -63 -39 -95 -53 -100 -45
-4 7 -10 40 -14 73 -10 94 -5 92 -141 68 -66 -12 -168 -28 -228 -37 -107 -15
-131 -25 -121 -54 3 -7 12 -52 21 -100 24 -141 36 -396 32 -734 -2 -267 -1
-319 11 -327 23 -14 197 -23 316 -16 87 4 113 9 123 23 9 13 12 107 12 391 l0
375 35 32 c102 97 236 98 288 1 22 -40 22 -48 22 -419 0 -317 2 -379 14 -387
41 -25 406 -25 437 1 13 11 15 81 12 518 l-3 506 -24 53 c-46 103 -153 171
-299 192 -81 12 -83 12 -152 -5z"/>
<path d="M8331 6441 c-12 -7 -12 -26 0 -122 10 -81 14 -254 14 -602 0 -478 0
-489 20 -500 30 -18 406 -17 428 2 15 12 17 55 15 450 -2 303 1 486 11 600 9
112 11 165 3 170 -5 3 -63 3 -129 -1 -65 -3 -163 -2 -218 3 -125 11 -127 11
-144 0z"/>
<path d="M1668 6102 c-417 -1 -758 -5 -758 -10 0 -4 5 -14 10 -22 5 -8 575
-581 1267 -1272 l1257 -1258 24 23 c13 12 33 35 44 51 l21 28 -21 -11 c-14 -7
-23 -8 -27 -1 -11 18 6 30 35 25 31 -5 51 15 49 52 0 11 -6 5 -16 -16 -10 -25
-17 -31 -23 -21 -5 8 -3 19 6 28 16 16 15 44 -1 42 -5 0 -10 -9 -9 -18 0 -11
-8 -19 -19 -19 -13 -1 -16 2 -9 10 5 7 15 29 22 51 9 28 15 35 21 25 7 -11 9
-10 9 4 0 10 7 28 15 41 13 20 13 23 0 23 -8 0 -15 -5 -15 -11 0 -6 -7 2 -15
18 -16 31 -20 50 -6 27 6 -9 29 -15 61 -16 28 -1 56 -7 62 -13 8 -8 5 -9 -11
-5 -12 3 -21 1 -21 -6 0 -6 -3 -10 -7 -9 -5 1 -18 -3 -30 -10 -17 -9 -23 -22
-23 -45 1 -24 3 -28 10 -17 5 9 32 27 59 40 29 13 51 30 52 39 0 14 1 14 7 1
8 -18 32 -25 32 -9 0 5 4 8 9 4 15 -9 24 16 11 28 -10 9 -11 9 -5 -2 6 -10 4
-12 -4 -6 -8 4 -11 20 -9 36 4 25 1 29 -19 29 -14 0 -23 6 -23 15 0 8 5 15 10
15 6 0 10 -5 10 -10 0 -14 69 -9 78 5 10 14 49 35 67 35 8 0 16 7 16 15 2 23
4 28 17 51 6 12 9 23 7 26 -2 2 6 5 18 5 12 1 23 6 25 12 9 26 49 56 70 53
l24 -4 -22 -23 c-12 -13 -28 -21 -35 -19 -6 3 -19 -6 -28 -20 -14 -20 -14 -25
-2 -30 17 -6 29 9 19 26 -4 7 -3 8 5 4 7 -5 26 7 47 31 30 32 32 39 17 41 -10
2 -21 8 -26 13 -4 5 -5 7 -1 5 10 -7 45 34 38 45 -4 8 -10 7 -16 -2 -7 -10 -8
-8 -3 7 4 14 0 24 -10 28 -8 3 -15 10 -15 16 0 6 4 8 10 5 20 -13 52 -14 76
-3 21 10 27 8 41 -11 14 -21 17 -22 25 -7 5 9 13 14 19 11 5 -4 9 -1 9 5 0 7
-8 9 -19 5 -27 -8 -36 12 -12 25 13 7 22 7 26 0 3 -5 12 -10 18 -10 7 0 6 4
-3 10 -20 12 -22 50 -3 50 9 0 13 6 9 15 -3 8 0 14 7 12 7 -1 11 6 11 16 -1
10 0 16 3 14 6 -7 60 47 55 55 -4 9 44 4 71 -7 10 -4 17 -3 17 4 0 10 -14 15
-33 12 -4 -1 -2 8 5 19 7 11 17 20 22 20 4 0 3 -7 -4 -15 -9 -11 -9 -15 -1
-15 7 0 17 14 23 30 10 31 44 57 56 44 4 -4 1 -9 -6 -11 -6 -3 -9 -9 -6 -15 6
-10 54 37 54 54 0 4 -10 8 -22 7 -22 0 -22 -1 -3 -10 17 -8 16 -9 -7 -6 -15 2
-29 -1 -32 -7 -3 -7 -5 -6 -5 2 -1 7 4 22 10 33 7 14 7 24 0 33 -6 7 -7 17 -3
21 4 5 -1 5 -10 2 -22 -8 -24 8 -3 17 8 3 15 1 15 -5 0 -6 5 -7 10 -4 6 3 10
2 10 -4 0 -5 -6 -12 -12 -15 -7 -4 2 -4 20 -1 18 2 31 1 28 -4 -3 -5 1 -12 10
-15 9 -4 14 -13 10 -21 -3 -9 0 -15 9 -15 19 0 20 29 1 36 -14 5 -11 40 5 50
4 2 17 -4 29 -16 11 -11 20 -15 20 -10 0 6 7 10 15 10 8 0 15 4 15 8 0 5 9 18
21 30 23 25 18 42 -12 42 -19 0 -19 1 -5 16 9 8 14 20 11 25 -4 5 2 9 11 9 10
0 25 7 35 16 24 21 43 10 28 -17 -5 -11 -8 -25 -5 -32 2 -7 5 -4 5 6 1 9 6 17
12 17 7 0 9 9 5 23 -3 13 -1 38 4 55 8 30 7 32 -16 32 -15 0 -24 6 -24 15 0
18 17 20 22 4 5 -14 78 -3 78 11 0 6 5 10 12 10 6 0 20 8 30 17 18 16 19 16
25 -5 3 -12 9 -19 14 -16 5 3 6 16 3 30 -4 15 -2 24 6 24 7 0 10 -7 6 -16 -4
-9 -1 -14 6 -12 6 2 13 14 15 27 2 12 -1 20 -6 16 -20 -12 9 61 32 81 19 16
21 22 11 32 -7 6 -19 9 -27 6 -15 -5 -31 22 -21 37 9 15 62 10 80 -8 11 -11
13 -18 5 -21 -6 -2 -11 -8 -11 -13 0 -14 28 -11 33 4 4 8 6 7 6 -3 1 -9 -4
-21 -10 -27 -8 -8 -8 -13 0 -17 6 -4 11 0 11 8 0 9 8 16 18 17 10 0 12 3 5 6
-19 7 -16 42 7 70 11 14 18 29 15 32 -2 4 9 7 26 7 17 0 29 -5 29 -13 0 -7 5
-13 10 -13 6 0 10 11 10 24 0 20 -4 23 -22 18 -20 -5 -20 -3 7 24 25 25 34 28
53 20 18 -7 28 -5 49 10 15 11 29 27 31 35 3 8 -5 5 -20 -8 -13 -13 -33 -23
-44 -23 -16 0 -17 2 -4 10 12 8 12 10 1 10 -8 0 -11 3 -8 6 4 4 13 2 21 -5 10
-9 15 -9 18 1 7 19 -2 39 -14 32 -6 -4 -8 2 -3 17 9 30 7 28 36 31 13 2 27 8
31 13 4 6 11 10 15 11 24 2 46 20 56 43 l10 26 6 -35 c4 -24 9 -31 15 -22 4 7
5 16 2 19 -3 3 -1 15 5 26 7 12 7 17 1 13 -5 -3 -12 1 -16 9 -3 8 0 14 7 12 7
-1 11 6 11 15 -1 10 2 16 6 13 4 -3 11 2 14 11 3 8 11 12 17 8 8 -4 9 -3 5 5
-4 6 0 14 8 17 9 3 13 11 9 17 -4 6 0 8 9 5 19 -8 29 -1 57 42 12 19 20 27 17
18 -3 -10 -1 -18 4 -18 6 0 10 -7 10 -15 0 -8 -4 -15 -10 -15 -5 0 -10 7 -10
17 0 22 -6 14 -14 -19 -8 -33 2 -35 34 -8 17 15 21 23 13 31 -14 14 18 96 45
118 15 12 12 13 -22 8 -31 -5 -36 -4 -23 6 8 7 17 21 19 31 3 19 4 19 20 2 10
-9 22 -15 27 -11 5 3 13 0 17 -6 5 -8 3 -9 -6 -4 -9 5 -11 4 -6 -3 11 -19 24
-14 39 13 12 25 13 25 32 7 19 -17 21 -16 64 26 42 42 43 43 16 40 -17 -2 -30
2 -33 11 -3 9 0 12 10 8 11 -4 14 1 12 19 -1 16 3 24 14 24 8 0 23 7 33 16 19
17 55 12 44 -6 -3 -5 -2 -10 4 -10 5 0 12 9 16 19 3 11 13 25 22 33 14 11 15
11 9 0 -7 -11 -4 -11 13 0 12 7 21 18 21 25 0 6 5 13 12 15 6 2 8 10 4 16 -8
13 -27 16 -25 5 4 -24 -4 -31 -33 -30 -18 1 -36 6 -40 12 -5 6 -8 5 -8 -2 0
-7 -11 -12 -25 -11 -14 1 -25 6 -25 10 0 4 -13 8 -30 8 -16 0 -30 -3 -30 -7 0
-5 -16 -8 -35 -9 -19 0 -35 3 -35 8 0 4 -8 8 -17 8 -15 0 -16 -2 -3 -10 10 -6
-151 -10 -462 -10 -418 0 -478 2 -478 15 0 13 60 15 473 17 l472 3 -470 5
-470 6 508 1 c290 0 509 -3 513 -8 6 -11 54 -12 54 -1 0 16 53 12 66 -5 13
-17 15 -17 28 0 7 9 16 17 19 17 3 0 8 -8 10 -17 4 -14 5 -13 6 4 l1 23 -636
0 c-431 0 -633 -3 -629 -10 4 -6 10 -8 15 -5 4 3 6 -4 3 -15 -4 -16 -2 -19 13
-14 16 6 15 3 -5 -19 -29 -32 -52 -34 -68 -8 -10 15 -9 22 2 31 16 13 21 35 6
26 -5 -3 -8 7 -6 22 2 26 0 27 -49 28 -28 0 -43 -1 -33 -4 18 -4 24 -32 7 -32
-5 0 -10 -9 -10 -19 0 -11 -5 -23 -11 -27 -8 -5 -10 0 -6 17 9 37 -5 54 -32
38 -21 -14 -28 -29 -12 -29 5 0 11 -9 14 -20 7 -27 -20 -26 -28 1 -6 19 -8 19
-36 -12 -32 -36 -39 -59 -12 -38 10 8 5 -1 -10 -19 -20 -24 -25 -40 -21 -58 4
-17 2 -24 -8 -24 -16 0 -22 37 -7 45 12 8 12 25 -1 25 -5 0 -10 -7 -10 -15 0
-8 -5 -15 -11 -15 -6 0 -17 -6 -25 -14 -12 -13 -11 -17 8 -31 13 -8 22 -19 20
-23 -1 -4 6 -8 17 -10 12 -2 21 4 24 15 3 10 5 2 4 -17 -2 -41 -31 -55 -40
-19 -4 15 -11 20 -22 15 -22 -8 -48 17 -32 33 6 6 7 11 1 11 -14 0 -34 -22
-34 -37 0 -7 7 -10 15 -7 10 4 15 0 15 -16 0 -20 -4 -21 -47 -16 -34 4 -42 3
-28 -3 19 -9 17 -11 -11 -15 -21 -2 -42 -32 -33 -47 7 -11 10 -9 15 9 4 15 12
21 21 18 8 -3 17 -6 19 -6 2 0 3 -12 3 -27 -2 -24 -2 -25 -6 -5 -7 35 -30 25
-24 -10 1 -8 -15 -12 -32 -9 -5 1 -6 -3 -2 -9 3 -5 -1 -20 -9 -32 -11 -15 -16
-18 -16 -8 -1 12 -3 11 -11 -2 -5 -10 -21 -18 -34 -18 -25 0 -34 14 -15 23 6
3 5 4 -2 3 -9 -2 -12 -17 -10 -43 2 -29 -2 -42 -12 -46 -9 -4 -18 -2 -21 3 -8
13 4 32 15 25 4 -3 6 3 3 14 -4 17 -7 16 -36 -10 -17 -16 -27 -32 -23 -36 5
-5 11 -2 13 4 4 10 8 9 19 -2 9 -8 12 -20 8 -26 -4 -7 3 -19 16 -29 29 -22 18
-40 -23 -39 -18 1 -24 3 -14 6 21 6 23 41 2 49 -8 4 -22 1 -30 -6 -17 -14 -21
-35 -5 -25 6 3 10 2 10 -3 0 -16 -13 -22 -26 -11 -8 6 -21 8 -31 4 -10 -5 -21
-8 -25 -7 -4 1 -6 -15 -5 -36 1 -27 -2 -36 -12 -34 -23 5 -50 -8 -56 -29 -4
-10 -11 -17 -16 -14 -5 4 -9 -1 -9 -9 0 -9 -4 -16 -9 -16 -5 0 -7 10 -4 23 l6
22 -21 -20 c-18 -18 -19 -21 -4 -34 15 -12 14 -13 -9 -9 -14 2 -30 -1 -37 -8
-14 -15 -16 -28 -4 -20 4 2 8 -7 7 -22 0 -15 4 -35 9 -44 12 -20 -8 -48 -33
-47 -12 0 -11 2 4 9 11 5 16 9 10 9 -5 1 -3 6 5 12 12 9 11 10 -8 6 -12 -3
-20 -1 -17 3 13 20 -15 18 -30 -2 -15 -22 -14 -24 6 -40 l21 -18 -26 0 c-15 0
-25 4 -21 9 3 5 1 12 -5 16 -5 3 -10 -2 -10 -12 0 -15 -2 -15 -10 -3 -5 9 -5
19 2 27 15 18 0 16 -18 -2 -9 -8 -12 -20 -8 -26 4 -8 -1 -9 -17 -4 -20 6 -22
5 -11 -6 15 -16 16 -29 1 -29 -5 0 -7 5 -4 10 9 15 -7 12 -29 -5 -11 -8 -25
-15 -31 -15 -6 0 -229 219 -495 486 -267 267 -496 491 -510 497 -19 9 -216 11
-782 9z m2846 -78 c9 -23 7 -31 -3 -15 -5 8 -11 9 -15 3 -3 -6 1 -17 9 -25 17
-18 20 -31 5 -22 -5 3 -10 0 -10 -7 0 -8 -10 -15 -23 -16 -17 -1 -23 4 -22 16
0 9 5 18 10 19 10 2 29 43 27 56 -3 14 16 7 22 -9z m-120 -68 c-3 -9 -12 -16
-20 -16 -8 0 -11 6 -8 15 4 8 10 12 15 9 5 -3 9 0 9 7 0 7 2 10 5 7 3 -3 3
-13 -1 -22z m1396 8 c0 -7 3 -14 8 -17 4 -2 1 -2 -6 0 -8 1 -20 3 -28 3 -8 0
-14 6 -14 13 0 7 9 13 20 13 11 0 20 -6 20 -12z m-1350 2 c0 -3 -4 -8 -10 -11
-5 -3 -10 -1 -10 4 0 6 5 11 10 11 6 0 10 -2 10 -4z m1163 -3 c5 -7 -353 -7
-788 0 -93 1 45 4 307 5 262 1 479 -1 481 -5z m92 -3 c11 -5 16 -9 10 -9 -5
-1 -3 -6 5 -12 13 -9 12 -10 -3 -5 -10 3 -20 0 -23 -7 -8 -23 -44 -18 -45 6
-1 17 -2 18 -6 5 -2 -10 -10 -18 -18 -18 -7 0 -19 8 -26 18 -11 14 -11 15 1 5
20 -18 28 -16 35 7 7 21 35 25 70 10z m-1142 -17 c-7 -2 -21 -2 -30 0 -10 3
-4 5 12 5 17 0 24 -2 18 -5z m90 0 c-7 -2 -19 -2 -25 0 -7 3 -2 5 12 5 14 0
19 -2 13 -5z m993 -60 c-2 -16 -4 -32 -5 -36 -2 -16 -41 14 -41 32 0 22 9 31
31 31 14 0 17 -7 15 -27z m-1356 -13 c0 -5 -5 -10 -11 -10 -5 0 -7 5 -4 10 3
6 8 10 11 10 2 0 4 -4 4 -10z m1404 -33 c10 -10 8 -17 -9 -35 l-21 -23 -19 21
c-16 18 -17 20 -1 20 9 0 19 7 22 15 7 18 12 19 28 2z m-234 -47 c-13 -8 -12
-11 3 -23 23 -16 20 -72 -3 -72 -11 0 -15 12 -16 45 -1 51 2 60 19 60 7 0 6
-4 -3 -10z m-1290 -150 c0 -5 -9 -10 -21 -10 -11 0 -17 5 -14 10 3 6 13 10 21
10 8 0 14 -4 14 -10z m1148 -23 c2 -10 -3 -17 -12 -17 -18 0 -29 16 -21 31 9
14 29 6 33 -14z m60 5 c5 -16 -64 -85 -80 -80 -7 3 -13 13 -13 24 0 21 34 32
45 14 5 -9 9 -9 14 -1 4 6 2 11 -3 11 -12 0 -15 33 -4 44 10 10 36 3 41 -12z
m32 -2 c0 -5 -5 -10 -11 -10 -5 0 -7 5 -4 10 3 6 8 10 11 10 2 0 4 -4 4 -10z
m-100 -100 c0 -5 -5 -10 -11 -10 -5 0 -7 5 -4 10 3 6 8 10 11 10 2 0 4 -4 4
-10z m-84 -55 c2 -5 -9 -19 -23 -29 -14 -11 -23 -14 -19 -8 6 11 -11 17 -36
13 -4 0 -5 6 -2 14 4 8 1 15 -5 15 -6 0 -11 -5 -11 -12 0 -6 -3 -9 -6 -5 -3 3
-3 10 0 15 7 12 99 10 102 -3z m54 -27 c0 -6 -6 -5 -15 2 -8 7 -15 14 -15 16
0 2 7 1 15 -2 8 -4 15 -11 15 -16z m-135 -67 c-6 -5 -25 10 -25 20 0 5 6 4 14
-3 8 -7 12 -15 11 -17z m-1295 -46 c0 -9 -9 -15 -22 -15 -22 1 -23 1 -4 15 25
19 26 19 26 0z m-50 -11 c0 -2 -9 -4 -21 -4 -11 0 -18 4 -14 10 5 8 35 3 35
-6z m1198 -17 c2 -10 -3 -17 -12 -17 -18 0 -29 16 -21 31 9 14 29 6 33 -14z
m72 3 c6 -11 7 -21 3 -21 -4 -1 -19 -3 -32 -4 -23 -2 -44 -23 -35 -36 7 -11
-29 -20 -39 -10 -15 15 0 41 23 41 13 0 20 7 20 18 0 10 3 22 7 25 13 14 43 6
53 -13z m-80 -100 c0 -5 -5 -10 -11 -10 -5 0 -7 5 -4 10 3 6 8 10 11 10 2 0 4
-4 4 -10z m-151 -99 c8 -5 10 -14 6 -21 -4 -7 -2 -16 5 -20 10 -6 9 -12 -2
-29 -14 -20 -17 -21 -32 -6 -23 23 -21 85 3 85 3 0 12 -4 20 -9z m-1309 -18
c0 -10 -4 -14 -8 -8 -4 6 -11 13 -16 18 -5 4 -2 7 7 7 10 0 17 -8 17 -17z m10
-78 c0 -46 -12 -59 -25 -28 -3 10 -1 19 4 21 6 2 11 15 11 28 0 13 2 24 5 24
3 0 5 -20 5 -45z m1242 -24 c10 -11 10 -12 1 -7 -7 4 -13 2 -13 -5 0 -6 -8 -9
-19 -6 -11 3 -29 -5 -45 -20 -14 -13 -26 -19 -26 -14 0 6 8 15 18 20 14 8 14
11 2 12 -8 1 -18 1 -22 0 -5 0 -8 6 -8 14 0 8 -5 15 -11 15 -7 0 -9 -9 -6 -21
4 -16 3 -19 -5 -11 -6 6 -8 17 -5 25 7 20 121 18 139 -2z m38 -1 c0 -5 -5 -10
-11 -10 -5 0 -7 5 -4 10 3 6 8 10 11 10 2 0 4 -4 4 -10z m-1292 -107 c7 -20 7
-33 1 -33 -5 0 -9 9 -9 19 0 11 -5 21 -12 23 -6 2 -8 10 -4 17 10 15 10 14 24
-26z m990 -56 c2 -10 -3 -17 -12 -17 -18 0 -29 16 -21 31 9 14 29 6 33 -14z
m56 14 c8 -12 -4 -42 -13 -37 -13 9 -34 -12 -36 -35 -1 -13 -3 -28 -4 -32 0
-4 -10 -3 -22 3 -27 15 -22 54 9 58 13 2 22 10 22 21 0 29 31 44 44 22z
m-1035 -389 c-1 -224 -5 -359 -10 -332 -12 68 -11 723 1 715 6 -4 10 -141 9
-383z m1071 378 c0 -5 -5 -10 -11 -10 -5 0 -7 5 -4 10 3 6 8 10 11 10 2 0 4
-4 4 -10z m-28 -98 c-7 -5 -10 -15 -7 -23 3 -8 -3 -19 -14 -26 -16 -10 -22 -8
-37 8 -16 18 -16 19 0 19 9 0 19 7 22 15 4 8 16 15 28 15 14 0 17 -3 8 -8z
m-217 -82 c0 -19 -4 -45 -9 -57 -14 -35 -36 -9 -34 41 1 50 5 58 26 54 12 -2
17 -14 17 -38z m0 -110 c3 -5 1 -10 -4 -10 -6 0 -11 5 -11 10 0 6 2 10 4 10 3
0 8 -4 11 -10z m-167 -33 c2 -10 -3 -17 -12 -17 -18 0 -29 16 -21 31 9 14 29
6 33 -14z m60 5 c5 -16 -64 -85 -80 -80 -7 3 -13 13 -13 24 0 21 34 32 45 14
5 -9 9 -9 14 -1 4 6 2 11 -3 11 -12 0 -15 33 -4 44 10 10 36 3 41 -12z m32 -2
c0 -5 -5 -10 -11 -10 -5 0 -7 5 -4 10 3 6 8 10 11 10 2 0 4 -4 4 -10z m-100
-100 c0 -5 -5 -10 -11 -10 -5 0 -7 5 -4 10 3 6 8 10 11 10 2 0 4 -4 4 -10z
m-92 -47 c50 -6 42 -16 -43 -50 -5 -3 -3 0 5 6 12 9 11 11 -7 11 -14 0 -23 6
-23 15 0 8 -4 15 -10 15 -5 0 -10 -5 -10 -12 0 -6 -3 -9 -6 -5 -3 3 -3 10 0
15 6 11 41 13 94 5z m-220 -176 c2 -10 -3 -17 -12 -17 -18 0 -29 16 -21 31 9
14 29 6 33 -14z m72 3 c6 -11 7 -21 3 -21 -4 -1 -19 -3 -32 -4 -23 -2 -44 -23
-35 -36 7 -11 -29 -20 -39 -10 -15 15 0 41 23 41 13 0 20 7 20 18 0 10 3 22 7
25 13 14 43 6 53 -13z m-80 -100 c0 -5 -5 -10 -11 -10 -5 0 -7 5 -4 10 3 6 8
10 11 10 2 0 4 -4 4 -10z m-331 -75 c0 -5 -4 -3 -9 5 -5 8 -9 22 -9 30 0 16
17 -16 18 -35z m283 16 c10 -11 10 -12 1 -7 -7 4 -13 2 -13 -5 0 -6 -8 -9 -19
-6 -11 3 -29 -5 -45 -20 -14 -13 -26 -19 -26 -14 0 6 8 15 18 20 14 8 14 11 2
12 -8 1 -18 1 -22 0 -5 0 -8 6 -8 14 0 8 -5 15 -11 15 -7 0 -9 -9 -6 -21 4
-16 3 -19 -5 -11 -6 6 -8 17 -5 25 7 20 121 18 139 -2z m38 5 c0 -3 -4 -8 -10
-11 -5 -3 -10 -1 -10 4 0 6 5 11 10 11 6 0 10 -2 10 -4z m-333 -68 c-3 -7 -5
-2 -5 12 0 14 2 19 5 13 2 -7 2 -19 0 -25z"/>
<path d="M5600 5890 c0 -5 5 -10 10 -10 6 0 10 5 10 10 0 6 -4 10 -10 10 -5 0
-10 -4 -10 -10z"/>
<path d="M5280 5620 c0 -5 5 -10 10 -10 6 0 10 5 10 10 0 6 -4 10 -10 10 -5 0
-10 -4 -10 -10z"/>
<path d="M5335 5620 c-3 -5 -1 -10 4 -10 6 0 11 5 11 10 0 6 -2 10 -4 10 -3 0
-8 -4 -11 -10z"/>
<path d="M5280 5570 c0 -5 5 -10 10 -10 6 0 10 5 10 10 0 6 -4 10 -10 10 -5 0
-10 -4 -10 -10z"/>
<path d="M4960 5300 c0 -5 5 -10 10 -10 6 0 10 5 10 10 0 6 -4 10 -10 10 -5 0
-10 -4 -10 -10z"/>
<path d="M5015 5300 c-3 -5 -1 -10 4 -10 6 0 11 5 11 10 0 6 -2 10 -4 10 -3 0
-8 -4 -11 -10z"/>
<path d="M4960 5250 c0 -5 5 -10 10 -10 6 0 10 5 10 10 0 6 -4 10 -10 10 -5 0
-10 -4 -10 -10z"/>
<path d="M4800 5090 c0 -5 5 -10 10 -10 6 0 10 5 10 10 0 6 -4 10 -10 10 -5 0
-10 -4 -10 -10z"/>
<path d="M4480 4820 c0 -5 5 -10 10 -10 6 0 10 5 10 10 0 6 -4 10 -10 10 -5 0
-10 -4 -10 -10z"/>
<path d="M4535 4820 c-3 -5 -1 -10 4 -10 6 0 11 5 11 10 0 6 -2 10 -4 10 -3 0
-8 -4 -11 -10z"/>
<path d="M4480 4770 c0 -5 5 -10 10 -10 6 0 10 5 10 10 0 6 -4 10 -10 10 -5 0
-10 -4 -10 -10z"/>
<path d="M4160 4500 c0 -5 5 -10 10 -10 6 0 10 5 10 10 0 6 -4 10 -10 10 -5 0
-10 -4 -10 -10z"/>
<path d="M4215 4500 c-3 -5 -1 -10 4 -10 6 0 11 5 11 10 0 6 -2 10 -4 10 -3 0
-8 -4 -11 -10z"/>
<path d="M4160 4450 c0 -5 5 -10 10 -10 6 0 10 5 10 10 0 6 -4 10 -10 10 -5 0
-10 -4 -10 -10z"/>
<path d="M3840 4180 c0 -5 5 -10 10 -10 6 0 10 5 10 10 0 6 -4 10 -10 10 -5 0
-10 -4 -10 -10z"/>
<path d="M3895 4180 c-3 -5 -1 -10 4 -10 6 0 11 5 11 10 0 6 -2 10 -4 10 -3 0
-8 -4 -11 -10z"/>
<path d="M3840 4130 c0 -5 5 -10 10 -10 6 0 10 5 10 10 0 6 -4 10 -10 10 -5 0
-10 -4 -10 -10z"/>
<path d="M5946 6075 c4 -9 11 -14 16 -13 15 5 11 23 -6 26 -11 2 -14 -2 -10
-13z"/>
<path d="M5878 6062 c-4 -15 0 -21 18 -25 14 -2 27 0 30 4 3 5 0 9 -7 9 -6 0
-17 7 -24 16 -11 15 -12 15 -17 -4z"/>
<path d="M4585 6020 c3 -5 8 -10 11 -10 2 0 4 5 4 10 0 6 -5 10 -11 10 -5 0
-7 -4 -4 -10z"/>
<path d="M5760 5890 c0 -5 5 -10 10 -10 6 0 10 5 10 10 0 6 -4 10 -10 10 -5 0
-10 -4 -10 -10z"/>
<path d="M5738 5863 c7 -3 16 -2 19 1 4 3 -2 6 -13 5 -11 0 -14 -3 -6 -6z"/>
<path d="M5611 5764 c0 -11 3 -14 6 -6 3 7 2 16 -1 19 -3 4 -6 -2 -5 -13z"/>
<path d="M5592 5719 c-19 -30 -8 -34 12 -4 9 14 13 25 9 25 -5 0 -14 -9 -21
-21z"/>
<path d="M4078 5713 c7 -3 16 -2 19 1 4 3 -2 6 -13 5 -11 0 -14 -3 -6 -6z"/>
<path d="M4046 5674 c-6 -16 2 -18 22 -5 11 7 11 9 -1 14 -9 3 -18 -1 -21 -9z"/>
<path d="M5540 5680 c0 -5 7 -10 15 -10 8 0 15 5 15 10 0 6 -7 10 -15 10 -8 0
-15 -4 -15 -10z"/>
<path d="M5520 5660 c0 -6 7 -10 15 -10 8 0 15 2 15 4 0 2 -7 6 -15 10 -8 3
-15 1 -15 -4z"/>
<path d="M4040 5639 c0 -5 5 -7 10 -4 6 3 10 8 10 11 0 2 -4 4 -10 4 -5 0 -10
-5 -10 -11z"/>
<path d="M5405 5534 c-11 -8 -25 -12 -32 -10 -7 3 -13 1 -13 -4 0 -6 5 -10 11
-10 8 0 8 -5 -1 -15 -24 -29 7 -15 34 16 31 34 31 45 1 23z"/>
<path d="M3876 5509 c-14 -14 -16 -19 -5 -19 19 1 50 25 42 33 -10 10 -16 8
-37 -14z"/>
<path d="M5330 5455 c-7 -8 -9 -15 -6 -15 4 0 14 7 22 15 9 8 11 15 6 15 -5 0
-15 -7 -22 -15z"/>
<path d="M3800 5436 c-25 -28 -21 -48 6 -26 13 12 17 11 25 -1 7 -12 9 -12 8
1 0 8 -4 23 -8 33 -6 16 -9 16 -31 -7z"/>
<path d="M5233 5367 c-34 -34 -28 -49 7 -19 29 25 38 43 23 41 -5 0 -18 -10
-30 -22z"/>
<path d="M3636 5255 c4 -8 13 -15 21 -15 13 0 13 3 3 15 -7 8 -16 15 -21 15
-5 0 -6 -7 -3 -15z"/>
<path d="M3593 5236 c-6 -7 -8 -18 -4 -25 8 -12 17 -5 35 27 10 16 -16 15 -31
-2z"/>
<path d="M5113 5238 c-17 -22 -26 -45 -10 -26 8 10 16 16 19 13 2 -3 5 2 5 10
0 18 -2 18 -14 3z"/>
<path d="M4985 5150 c-3 -5 -1 -10 4 -10 6 0 11 5 11 10 0 6 -2 10 -4 10 -3 0
-8 -4 -11 -10z"/>
<path d="M4855 5140 c-3 -5 -1 -10 4 -10 6 0 11 5 11 10 0 6 -2 10 -4 10 -3 0
-8 -4 -11 -10z"/>
<path d="M4985 5120 c-3 -5 1 -10 9 -10 9 0 16 5 16 10 0 6 -4 10 -9 10 -6 0
-13 -4 -16 -10z"/>
<path d="M4891 5058 c1 -23 15 -52 21 -42 3 5 2 19 -3 32 -9 24 -19 30 -18 10z"/>
<path d="M4920 5061 c0 -5 5 -13 10 -16 6 -3 10 -2 10 4 0 5 -4 13 -10 16 -5
3 -10 2 -10 -4z"/>
<path d="M4738 4876 c-10 -7 -18 -16 -18 -20 0 -12 21 -6 42 14 25 23 5 28
-24 6z"/>
<path d="M4687 4820 c3 -11 6 -20 7 -20 1 0 9 9 19 20 16 19 16 20 -7 20 -19
0 -23 -4 -19 -20z"/>
<path d="M4635 4800 c-3 -5 -1 -10 4 -10 6 0 11 5 11 10 0 6 -2 10 -4 10 -3 0
-8 -4 -11 -10z"/>
<path d="M4615 4740 c3 -5 11 -10 16 -10 6 0 7 5 4 10 -3 6 -11 10 -16 10 -6
0 -7 -4 -4 -10z"/>
<path d="M4491 4654 c0 -11 3 -14 6 -6 3 7 2 16 -1 19 -3 4 -6 -2 -5 -13z"/>
<path d="M4265 4420 c20 -9 20 -9 -1 -15 -15 -5 -20 -13 -17 -25 4 -16 7 -15
31 7 22 20 24 26 12 33 -8 6 -22 9 -30 9 -10 0 -8 -3 5 -9z"/>
<path d="M4191 4347 c-15 -15 -14 -37 2 -37 14 0 37 19 37 31 0 13 -28 17 -39
6z m26 -13 c-3 -3 -12 -4 -19 -1 -8 3 -5 6 6 6 11 1 17 -2 13 -5z"/>
<path d="M4087 4231 c5 -28 -23 -53 -51 -45 -12 4 -16 2 -12 -5 9 -14 46 -15
46 -1 0 6 5 10 11 10 15 0 38 30 39 49 0 10 -3 11 -14 2 -11 -9 -15 -9 -19 1
-2 7 -2 2 0 -11z"/>
<path d="M3863 3994 c-13 -14 -23 -28 -23 -30 0 -10 49 28 54 42 8 22 -7 16
-31 -12z"/>
<path d="M3790 3935 c-7 -8 -9 -15 -5 -15 5 0 0 -9 -10 -20 -25 -28 -14 -25
21 5 19 17 24 25 14 26 -10 0 -8 3 5 9 15 7 16 9 4 9 -9 1 -22 -6 -29 -14z"/>
<path d="M3620 3776 c0 -18 19 -31 28 -21 4 4 1 10 -6 12 -6 3 -10 9 -6 14 3
5 0 9 -5 9 -6 0 -11 -6 -11 -14z"/>
<path d="M3660 3780 c0 -5 5 -10 11 -10 5 0 7 5 4 10 -3 6 -8 10 -11 10 -2 0
-4 -4 -4 -10z"/>
<path d="M3600 3751 c0 -10 19 -25 25 -20 1 2 -3 10 -11 17 -8 7 -14 8 -14 3z"/>
<path d="M3590 3710 c-9 -6 -10 -10 -3 -10 6 0 15 5 18 10 8 12 4 12 -15 0z"/>
</g>
</svg>
