<?xml version="1.0" standalone="no"?>
<!DOCTYPE svg PUBLIC "-//W3C//DTD SVG 20010904//EN"
 "http://www.w3.org/TR/2001/REC-SVG-20010904/DTD/svg10.dtd">
<svg version="1.0" xmlns="http://www.w3.org/2000/svg"
 width="700.000000pt" height="400.000000pt" viewBox="0 0 700.000000 400.000000"
 preserveAspectRatio="xMidYMid meet">

<g transform="translate(0.000000,400.000000) scale(0.100000,-0.100000)"
fill="#000000" stroke="none">
<path d="M3400 3754 c-471 -42 -734 -106 -1045 -253 -211 -101 -368 -213 -518
-370 -77 -82 -172 -209 -162 -219 2 -2 63 8 137 22 480 92 870 141 1302 167
153 9 211 9 252 0 95 -22 91 1 99 -478 5 -270 3 -596 -5 -921 -6 -277 -9 -506
-5 -510 10 -11 178 -14 193 -4 12 8 12 107 2 603 -16 737 -6 1245 24 1277 33
38 107 45 329 32 412 -22 933 -91 1332 -174 38 -9 71 -13 74 -11 2 3 -18 38
-45 78 -97 143 -313 334 -494 436 -271 154 -631 267 -975 305 -144 16 -415 27
-495 20z"/>
<path d="M2820 2854 c-366 -16 -585 -39 -943 -99 -223 -38 -285 -50 -294 -59
-17 -16 -33 -135 -33 -236 0 -291 141 -552 425 -786 207 -171 533 -327 832
-399 82 -19 98 -17 105 17 3 13 33 129 66 258 69 265 119 484 189 817 72 342
66 421 -34 468 -39 19 -155 26 -313 19z"/>
<path d="M3998 2845 c-57 -18 -84 -54 -99 -127 -10 -48 -5 -80 50 -358 80
-400 114 -547 192 -840 57 -213 71 -260 80 -260 23 0 201 54 314 95 451 164
798 450 933 770 59 139 67 178 66 340 -1 188 -13 236 -64 247 -244 54 -661
112 -910 127 -331 20 -511 22 -562 6z"/>
<path d="M1000 705 l0 -64 73 -3 72 -3 5 -170 5 -170 95 1 95 1 5 169 5 169
70 3 70 3 -3 64 -4 65 -244 0 -244 0 0 -65z"/>
<path d="M1640 751 c-5 -11 -23 -53 -39 -93 -16 -40 -52 -129 -81 -198 -73
-174 -72 -167 -13 -169 26 -1 68 1 93 5 l45 5 28 77 c16 42 39 103 50 134 12
32 27 58 32 58 6 0 16 -17 22 -37 24 -77 62 -183 76 -210 15 -27 18 -28 101
-30 47 0 88 2 91 7 4 7 -12 50 -69 188 -13 31 -43 102 -66 157 -22 54 -46 105
-52 112 -7 9 -41 13 -109 13 -87 0 -99 -2 -109 -19z"/>
<path d="M2020 705 l0 -64 73 -3 72 -3 3 -165 c2 -111 6 -166 14 -171 7 -4 50
-7 97 -6 l86 2 3 173 2 172 70 0 70 0 0 65 0 65 -245 0 -245 0 0 -65z"/>
<path d="M2663 758 c-18 -24 -185 -447 -179 -456 11 -18 186 -10 186 8 0 24
94 260 102 258 6 -2 31 -60 55 -128 25 -69 52 -131 61 -138 18 -13 169 -16
177 -2 4 6 -148 382 -178 440 -12 24 -17 25 -113 28 -73 2 -104 -1 -111 -10z"/>
<path d="M4004 745 c-135 -68 -165 -288 -54 -394 74 -70 197 -80 288 -24 114
70 140 266 49 370 -66 76 -187 96 -283 48z m174 -71 c33 -22 52 -74 52 -144 0
-102 -42 -159 -117 -160 -76 0 -123 63 -123 167 0 127 96 197 188 137z"/>
<path d="M4902 758 c-127 -43 -183 -239 -105 -366 75 -122 265 -136 362 -26
98 111 70 317 -53 381 -38 20 -159 26 -204 11z m132 -72 c87 -36 104 -224 25
-290 -57 -49 -142 -27 -174 45 -13 27 -16 56 -13 108 4 82 26 119 79 138 44
15 44 15 83 -1z"/>
<path d="M5342 763 l-42 -4 2 -227 3 -227 47 -3 47 -3 3 93 3 93 31 3 c47 5
71 -23 97 -108 l23 -75 53 -3 c47 -3 53 -1 47 14 -4 9 -14 46 -23 81 -9 36
-27 78 -41 95 l-25 30 31 24 c70 55 60 158 -19 200 -29 15 -165 25 -237 17z
m156 -74 c37 -13 59 -57 43 -88 -16 -29 -43 -41 -95 -41 l-46 0 0 64 c0 42 4
66 13 69 21 9 53 7 85 -4z"/>
<path d="M5814 760 c-18 -6 -46 -26 -63 -45 -65 -74 -31 -163 79 -208 82 -34
100 -48 100 -79 0 -54 -75 -72 -177 -42 -18 5 -23 1 -31 -27 -5 -19 -7 -37 -5
-41 7 -14 118 -30 162 -24 101 14 150 54 158 129 4 33 0 49 -19 76 -24 34 -33
40 -133 89 -66 32 -79 56 -46 86 21 19 64 24 122 13 34 -7 36 -6 46 28 8 25 8
37 0 42 -18 11 -160 13 -193 3z"/>
<path d="M3306 698 c-3 -35 -8 -108 -11 -163 -3 -55 -8 -130 -12 -167 l-6 -68
46 0 45 0 6 93 c4 50 9 132 12 181 4 50 10 83 14 75 4 -8 22 -70 40 -139 58
-224 46 -200 96 -200 32 0 44 4 48 18 32 112 100 319 107 326 5 6 10 -26 11
-80 0 -49 2 -93 3 -99 2 -5 3 -47 4 -92 l1 -83 50 0 c45 0 50 2 50 23 -1 19
-28 428 -29 435 -1 1 -32 2 -69 2 l-68 0 -32 -102 c-17 -57 -39 -129 -48 -161
-9 -32 -18 -57 -20 -54 -2 2 -18 53 -34 113 -17 60 -38 130 -46 157 l-16 47
-68 0 -68 0 -6 -62z"/>
<path d="M4370 720 l0 -40 65 0 65 0 0 -190 0 -190 50 0 50 0 0 190 0 189 63
3 62 3 3 38 3 37 -180 0 -181 0 0 -40z"/>
</g>
</svg>
